<svg xmlns="http://www.w3.org/2000/svg" xmlns:xlink="http://www.w3.org/1999/xlink" width="100" zoomAndPan="magnify" viewBox="0 0 75 74.999997" height="100" preserveAspectRatio="xMidYMid meet" version="1.0"><defs><clipPath id="909308618b"><path d="M 29.917969 27.75 L 47.15625 27.75 L 47.15625 47.25 L 29.917969 47.25 Z M 29.917969 27.75 " clip-rule="nonzero"/></clipPath></defs><path stroke-linecap="round" transform="matrix(0.75, 0, 0, 0.75, 4.07867, 17.752573)" fill="none" stroke-linejoin="miter" d="M 0.999274 1.001778 L 88.650322 1.001778 " stroke="#e42f2a" stroke-width="2" stroke-opacity="1" stroke-miterlimit="4"/><path stroke-linecap="round" transform="matrix(0.75, 0, 0, 0.75, 4.07867, 55.747413)" fill="none" stroke-linejoin="miter" d="M 0.999274 0.998241 L 88.650322 0.998241 " stroke="#e42f2a" stroke-width="2" stroke-opacity="1" stroke-miterlimit="4"/><path stroke-linecap="round" transform="matrix(0, -0.75, 0.75, 0, 3.925602, 56.496395)" fill="none" stroke-linejoin="miter" d="M 1.000402 1.000239 L 50.203531 1.000239 " stroke="#e42f2a" stroke-width="2" stroke-opacity="1" stroke-miterlimit="4"/><path stroke-linecap="round" transform="matrix(0, 0.75, -0.75, 0, 71.822772, 18.093627)" fill="none" stroke-linejoin="miter" d="M 1.000165 0.998072 L 50.984544 0.998072 " stroke="#e42f2a" stroke-width="2" stroke-opacity="1" stroke-miterlimit="4"/><path stroke-linecap="butt" transform="matrix(0, 0.75, -0.75, 0, 23.905872, 18.503904)" fill="none" stroke-linejoin="miter" d="M 0.0000034682 0.999496 L 50.661466 0.999496 " stroke="#e42f2a" stroke-width="2" stroke-opacity="1" stroke-miterlimit="4"/><path stroke-linecap="butt" transform="matrix(0, -0.75, 0.75, 0, 52.4886, 56.08624)" fill="none" stroke-linejoin="miter" d="M 0.00040336 0.999576 L 50.114991 0.999576 " stroke="#e42f2a" stroke-width="2" stroke-opacity="1" stroke-miterlimit="4"/><g clip-path="url(#909308618b)"><path fill="#e42f2a" d="M 39.464844 47.25 L 37.679688 47.25 C 37.589844 47.25 37.507812 47.210938 37.445312 47.144531 C 37.386719 47.078125 37.359375 46.992188 37.367188 46.902344 C 37.421875 46.378906 37.480469 45.863281 37.542969 45.320312 C 37.621094 44.625 37.703125 43.902344 37.78125 43.144531 C 37.789062 43.050781 37.792969 42.949219 37.796875 42.847656 C 37.796875 42.789062 37.800781 42.730469 37.800781 42.671875 C 37.804688 42.660156 37.804688 42.632812 37.804688 42.597656 C 37.804688 42.589844 37.804688 42.578125 37.804688 42.570312 C 37.746094 42.574219 37.644531 42.582031 37.503906 42.609375 C 37.5 42.609375 37.492188 42.609375 37.488281 42.613281 L 34.070312 43.0625 C 33.957031 43.078125 33.847656 43.03125 33.777344 42.941406 C 33.710938 42.855469 33.695312 42.738281 33.734375 42.632812 L 33.757812 42.582031 C 33.886719 42.179688 33.988281 41.863281 34.046875 41.671875 C 34.0625 41.632812 34.074219 41.59375 34.082031 41.566406 C 34.113281 41.472656 34.128906 41.386719 34.136719 41.328125 C 34.136719 41.316406 34.136719 41.304688 34.140625 41.296875 C 34.128906 41.285156 34.105469 41.257812 34.050781 41.222656 L 34.046875 41.21875 C 33.457031 40.824219 32.941406 40.339844 32.441406 39.871094 C 32.085938 39.539062 31.71875 39.195312 31.335938 38.894531 C 30.886719 38.542969 30.445312 38.160156 30.019531 37.761719 C 29.941406 37.691406 29.90625 37.589844 29.921875 37.488281 C 29.9375 37.386719 30 37.296875 30.09375 37.25 C 30.359375 37.117188 30.566406 37.023438 30.722656 36.964844 L 30.726562 36.964844 C 30.753906 36.953125 30.820312 36.929688 30.898438 36.882812 L 30.929688 36.867188 C 30.949219 36.855469 30.96875 36.84375 30.984375 36.832031 C 30.988281 36.800781 30.980469 36.734375 30.976562 36.695312 C 30.972656 36.65625 30.96875 36.640625 30.9375 36.53125 C 30.925781 36.503906 30.917969 36.472656 30.90625 36.4375 C 30.890625 36.378906 30.875 36.324219 30.859375 36.269531 C 30.84375 36.210938 30.828125 36.15625 30.8125 36.105469 C 30.75 35.882812 30.570312 35.210938 30.269531 34.039062 C 30.242188 33.933594 30.273438 33.820312 30.347656 33.742188 C 30.425781 33.664062 30.535156 33.628906 30.644531 33.65625 L 31.742188 33.898438 C 32.269531 34.007812 32.578125 34.074219 32.71875 34.113281 C 32.789062 34.132812 32.820312 34.136719 32.910156 34.148438 C 32.953125 34.152344 32.980469 34.15625 32.992188 34.15625 C 32.992188 34.152344 32.996094 34.152344 32.996094 34.152344 C 33.003906 34.136719 33.011719 34.105469 33.027344 34.054688 C 33.070312 33.914062 33.089844 33.847656 33.089844 33.847656 C 33.113281 33.757812 33.136719 33.667969 33.160156 33.578125 C 33.171875 33.527344 33.183594 33.480469 33.199219 33.429688 C 33.234375 33.296875 33.273438 33.15625 33.3125 33.015625 C 33.347656 32.90625 33.4375 32.820312 33.550781 32.796875 C 33.664062 32.773438 33.78125 32.816406 33.855469 32.902344 C 34.710938 33.910156 35.203125 34.496094 35.359375 34.683594 L 35.359375 34.6875 C 35.433594 34.777344 35.507812 34.863281 35.585938 34.949219 C 35.609375 34.976562 35.628906 35.003906 35.652344 35.03125 C 35.695312 35.082031 35.730469 35.128906 35.785156 35.171875 C 35.792969 35.175781 35.796875 35.179688 35.800781 35.183594 C 35.804688 35.171875 35.804688 35.15625 35.804688 35.144531 C 35.808594 34.96875 35.792969 34.875 35.792969 34.863281 C 35.792969 34.859375 35.792969 34.859375 35.789062 34.855469 C 35.648438 34.027344 35.507812 33.269531 35.378906 32.609375 L 35.371094 32.578125 C 35.339844 32.40625 35.277344 32.089844 35.199219 31.664062 C 35.128906 31.273438 35.0625 30.882812 35 30.5 C 34.980469 30.382812 35.03125 30.265625 35.128906 30.195312 C 35.226562 30.125 35.355469 30.117188 35.460938 30.171875 C 35.941406 30.433594 36.230469 30.59375 36.347656 30.660156 C 36.402344 30.691406 36.457031 30.722656 36.515625 30.75 C 36.578125 30.78125 36.601562 30.792969 36.625 30.800781 C 36.6875 30.824219 36.734375 30.835938 36.769531 30.824219 C 36.792969 30.820312 36.8125 30.804688 36.832031 30.785156 C 36.84375 30.773438 36.851562 30.757812 36.859375 30.742188 C 36.859375 30.742188 36.863281 30.738281 36.863281 30.734375 C 37.007812 30.457031 37.15625 30.171875 37.300781 29.890625 C 37.632812 29.242188 37.964844 28.578125 38.289062 27.921875 C 38.34375 27.816406 38.453125 27.75 38.574219 27.75 C 38.691406 27.75 38.800781 27.816406 38.855469 27.921875 C 39.179688 28.578125 39.511719 29.242188 39.84375 29.890625 C 39.988281 30.171875 40.136719 30.457031 40.28125 30.734375 C 40.28125 30.738281 40.285156 30.742188 40.285156 30.746094 C 40.292969 30.757812 40.300781 30.773438 40.3125 30.785156 C 40.332031 30.804688 40.351562 30.820312 40.375 30.824219 C 40.414062 30.835938 40.457031 30.824219 40.519531 30.800781 C 40.542969 30.792969 40.566406 30.78125 40.628906 30.75 C 40.6875 30.722656 40.742188 30.691406 40.796875 30.660156 L 40.800781 30.660156 C 40.914062 30.59375 41.203125 30.433594 41.683594 30.175781 C 41.789062 30.117188 41.917969 30.125 42.015625 30.195312 C 42.113281 30.265625 42.164062 30.382812 42.144531 30.5 C 42.082031 30.882812 42.015625 31.273438 41.945312 31.664062 C 41.867188 32.089844 41.804688 32.40625 41.773438 32.578125 L 41.765625 32.609375 C 41.636719 33.269531 41.496094 34.027344 41.355469 34.855469 C 41.351562 34.859375 41.355469 34.859375 41.351562 34.863281 C 41.351562 34.875 41.335938 34.96875 41.339844 35.144531 C 41.339844 35.15625 41.339844 35.171875 41.34375 35.183594 C 41.347656 35.179688 41.355469 35.175781 41.359375 35.171875 C 41.414062 35.128906 41.449219 35.082031 41.492188 35.03125 C 41.515625 35.003906 41.535156 34.976562 41.5625 34.949219 C 41.636719 34.863281 41.710938 34.777344 41.785156 34.6875 L 41.785156 34.683594 C 41.941406 34.496094 42.433594 33.910156 43.289062 32.902344 C 43.363281 32.816406 43.480469 32.773438 43.59375 32.796875 C 43.707031 32.824219 43.796875 32.90625 43.832031 33.015625 C 43.871094 33.15625 43.910156 33.296875 43.945312 33.429688 C 43.960938 33.480469 43.972656 33.53125 43.984375 33.578125 C 44.007812 33.667969 44.03125 33.757812 44.054688 33.847656 C 44.054688 33.847656 44.074219 33.914062 44.117188 34.054688 C 44.132812 34.105469 44.140625 34.136719 44.148438 34.152344 C 44.148438 34.152344 44.152344 34.15625 44.15625 34.15625 C 44.164062 34.15625 44.191406 34.152344 44.238281 34.148438 C 44.324219 34.136719 44.355469 34.132812 44.425781 34.113281 C 44.566406 34.074219 44.875 34.007812 45.40625 33.898438 L 46.5 33.65625 C 46.609375 33.632812 46.71875 33.664062 46.796875 33.742188 C 46.871094 33.820312 46.902344 33.933594 46.875 34.039062 C 46.574219 35.210938 46.394531 35.882812 46.332031 36.105469 C 46.316406 36.160156 46.300781 36.210938 46.285156 36.269531 C 46.269531 36.324219 46.253906 36.378906 46.238281 36.4375 C 46.226562 36.472656 46.21875 36.503906 46.210938 36.53125 C 46.175781 36.640625 46.171875 36.660156 46.167969 36.695312 C 46.164062 36.734375 46.15625 36.800781 46.160156 36.832031 C 46.175781 36.84375 46.195312 36.855469 46.21875 36.867188 L 46.25 36.886719 C 46.328125 36.929688 46.390625 36.953125 46.417969 36.964844 L 46.421875 36.964844 C 46.578125 37.023438 46.785156 37.117188 47.054688 37.25 C 47.144531 37.296875 47.207031 37.386719 47.222656 37.488281 C 47.238281 37.589844 47.203125 37.691406 47.128906 37.761719 C 46.703125 38.160156 46.257812 38.542969 45.808594 38.894531 C 45.425781 39.195312 45.058594 39.539062 44.707031 39.871094 C 44.203125 40.339844 43.6875 40.824219 43.097656 41.21875 L 43.09375 41.222656 C 43.039062 41.257812 43.015625 41.285156 43.003906 41.296875 C 43.007812 41.308594 43.007812 41.320312 43.007812 41.328125 C 43.015625 41.386719 43.035156 41.472656 43.0625 41.566406 C 43.074219 41.597656 43.082031 41.632812 43.097656 41.671875 C 43.15625 41.863281 43.257812 42.179688 43.386719 42.582031 L 43.410156 42.632812 C 43.449219 42.738281 43.433594 42.855469 43.367188 42.945312 C 43.296875 43.03125 43.1875 43.078125 43.078125 43.0625 L 39.65625 42.613281 C 39.652344 42.613281 39.644531 42.609375 39.640625 42.609375 C 39.5 42.582031 39.398438 42.574219 39.339844 42.570312 C 39.339844 42.582031 39.339844 42.589844 39.339844 42.597656 C 39.339844 42.632812 39.34375 42.664062 39.34375 42.671875 C 39.34375 42.730469 39.347656 42.789062 39.347656 42.847656 C 39.351562 42.949219 39.355469 43.050781 39.363281 43.144531 C 39.441406 43.902344 39.523438 44.625 39.601562 45.320312 C 39.664062 45.863281 39.722656 46.378906 39.777344 46.902344 C 39.789062 46.992188 39.757812 47.082031 39.699219 47.148438 C 39.640625 47.210938 39.554688 47.25 39.464844 47.25 Z M 38.03125 46.621094 L 39.113281 46.621094 C 39.070312 46.214844 39.027344 45.8125 38.976562 45.390625 C 38.898438 44.691406 38.816406 43.96875 38.738281 43.207031 C 38.726562 43.089844 38.722656 42.976562 38.71875 42.867188 C 38.71875 42.808594 38.71875 42.757812 38.714844 42.703125 C 38.714844 42.6875 38.710938 42.648438 38.710938 42.601562 C 38.710938 42.53125 38.710938 42.496094 38.71875 42.449219 C 38.734375 42.339844 38.789062 42.226562 38.867188 42.140625 C 38.910156 42.089844 38.964844 42.046875 39.023438 42.015625 C 39.035156 42.007812 39.078125 41.984375 39.132812 41.964844 C 39.253906 41.925781 39.457031 41.933594 39.75 41.988281 L 42.660156 42.371094 C 42.589844 42.160156 42.535156 41.984375 42.496094 41.863281 C 42.484375 41.820312 42.472656 41.785156 42.464844 41.757812 C 42.421875 41.621094 42.398438 41.496094 42.386719 41.414062 C 42.378906 41.351562 42.371094 41.304688 42.375 41.25 C 42.386719 41.039062 42.511719 40.855469 42.746094 40.699219 L 42.75 40.695312 C 43.296875 40.332031 43.769531 39.886719 44.273438 39.414062 C 44.640625 39.070312 45.015625 38.714844 45.421875 38.398438 C 45.734375 38.152344 46.046875 37.890625 46.355469 37.617188 C 46.296875 37.59375 46.246094 37.570312 46.199219 37.554688 C 46.160156 37.539062 46.054688 37.5 45.933594 37.429688 L 45.902344 37.410156 C 45.808594 37.355469 45.726562 37.308594 45.660156 37.222656 C 45.496094 37.015625 45.527344 36.769531 45.542969 36.621094 C 45.554688 36.527344 45.570312 36.472656 45.605469 36.351562 C 45.613281 36.324219 45.625 36.296875 45.632812 36.261719 C 45.648438 36.207031 45.664062 36.15625 45.679688 36.101562 C 45.695312 36.042969 45.710938 35.984375 45.726562 35.925781 C 45.78125 35.75 45.917969 35.230469 46.136719 34.378906 L 45.539062 34.511719 C 45.535156 34.511719 45.535156 34.511719 45.535156 34.515625 C 45.023438 34.617188 44.714844 34.6875 44.589844 34.722656 C 44.476562 34.75 44.414062 34.757812 44.316406 34.773438 C 44.183594 34.789062 44.105469 34.789062 44.027344 34.773438 C 43.828125 34.730469 43.707031 34.609375 43.664062 34.558594 C 43.589844 34.472656 43.5625 34.386719 43.515625 34.242188 C 43.46875 34.085938 43.449219 34.007812 43.445312 34 C 43.425781 33.921875 43.40625 33.84375 43.382812 33.765625 C 42.773438 34.484375 42.398438 34.925781 42.277344 35.082031 L 42.273438 35.082031 C 42.195312 35.179688 42.113281 35.273438 42.03125 35.367188 C 42.015625 35.386719 42 35.40625 41.984375 35.425781 C 41.929688 35.496094 41.859375 35.578125 41.753906 35.664062 C 41.640625 35.753906 41.546875 35.800781 41.445312 35.820312 C 41.394531 35.832031 41.128906 35.867188 40.917969 35.671875 C 40.820312 35.578125 40.777344 35.472656 40.757812 35.421875 C 40.714844 35.300781 40.710938 35.195312 40.710938 35.15625 C 40.707031 34.914062 40.730469 34.78125 40.734375 34.746094 C 40.878906 33.914062 41.019531 33.152344 41.148438 32.484375 L 41.15625 32.453125 C 41.1875 32.285156 41.25 31.972656 41.328125 31.550781 C 41.359375 31.378906 41.386719 31.207031 41.417969 31.035156 C 41.273438 31.113281 41.171875 31.167969 41.121094 31.199219 L 41.121094 31.203125 C 41.050781 31.242188 40.980469 31.28125 40.90625 31.316406 C 40.832031 31.355469 40.785156 31.375 40.722656 31.398438 C 40.628906 31.429688 40.429688 31.496094 40.199219 31.429688 C 40.109375 31.402344 39.976562 31.34375 39.859375 31.21875 C 39.800781 31.160156 39.753906 31.09375 39.71875 31.019531 C 39.574219 30.742188 39.429688 30.457031 39.285156 30.175781 C 39.046875 29.710938 38.808594 29.242188 38.574219 28.769531 C 38.335938 29.242188 38.097656 29.710938 37.859375 30.175781 C 37.714844 30.457031 37.570312 30.742188 37.425781 31.019531 C 37.390625 31.09375 37.34375 31.160156 37.289062 31.21875 C 37.167969 31.34375 37.035156 31.402344 36.949219 31.429688 C 36.714844 31.496094 36.515625 31.429688 36.421875 31.398438 C 36.359375 31.375 36.316406 31.355469 36.238281 31.316406 C 36.164062 31.28125 36.09375 31.242188 36.027344 31.203125 L 36.023438 31.199219 C 35.972656 31.167969 35.871094 31.113281 35.726562 31.035156 C 35.757812 31.207031 35.789062 31.378906 35.820312 31.550781 C 35.894531 31.972656 35.957031 32.285156 35.988281 32.453125 L 35.996094 32.484375 C 36.128906 33.152344 36.265625 33.914062 36.410156 34.746094 C 36.417969 34.78125 36.4375 34.914062 36.433594 35.15625 C 36.433594 35.195312 36.433594 35.296875 36.386719 35.421875 C 36.367188 35.472656 36.328125 35.578125 36.226562 35.671875 C 36.015625 35.867188 35.75 35.832031 35.699219 35.820312 C 35.601562 35.800781 35.503906 35.753906 35.394531 35.664062 C 35.285156 35.578125 35.21875 35.492188 35.164062 35.425781 C 35.144531 35.40625 35.128906 35.386719 35.113281 35.367188 C 35.03125 35.273438 34.949219 35.179688 34.871094 35.082031 L 34.871094 35.078125 C 34.746094 34.925781 34.375 34.484375 33.761719 33.761719 C 33.742188 33.839844 33.71875 33.921875 33.699219 34 C 33.699219 34.007812 33.679688 34.085938 33.628906 34.242188 C 33.585938 34.386719 33.554688 34.472656 33.480469 34.558594 C 33.4375 34.605469 33.316406 34.726562 33.117188 34.769531 C 33.042969 34.789062 32.960938 34.789062 32.828125 34.769531 C 32.730469 34.757812 32.667969 34.75 32.558594 34.71875 C 32.429688 34.6875 32.121094 34.617188 31.613281 34.511719 C 31.609375 34.511719 31.609375 34.511719 31.609375 34.511719 L 31.007812 34.378906 C 31.230469 35.230469 31.367188 35.75 31.417969 35.925781 C 31.4375 35.984375 31.453125 36.042969 31.46875 36.101562 C 31.484375 36.15625 31.496094 36.207031 31.511719 36.257812 C 31.523438 36.296875 31.53125 36.324219 31.539062 36.351562 C 31.574219 36.472656 31.59375 36.527344 31.601562 36.621094 C 31.621094 36.769531 31.648438 37.015625 31.488281 37.222656 C 31.417969 37.308594 31.335938 37.355469 31.242188 37.410156 L 31.214844 37.429688 C 31.089844 37.5 30.988281 37.539062 30.949219 37.554688 L 30.945312 37.554688 C 30.898438 37.570312 30.847656 37.589844 30.792969 37.617188 C 31.097656 37.890625 31.410156 38.152344 31.722656 38.398438 C 32.128906 38.714844 32.507812 39.070312 32.871094 39.410156 C 33.375 39.882812 33.851562 40.332031 34.398438 40.695312 L 34.398438 40.699219 C 34.632812 40.855469 34.757812 41.039062 34.769531 41.25 C 34.773438 41.304688 34.769531 41.351562 34.757812 41.414062 C 34.746094 41.496094 34.726562 41.621094 34.683594 41.757812 C 34.671875 41.785156 34.660156 41.820312 34.648438 41.863281 C 34.609375 41.984375 34.554688 42.15625 34.484375 42.371094 L 37.398438 41.988281 C 37.6875 41.933594 37.894531 41.925781 38.011719 41.964844 C 38.066406 41.984375 38.113281 42.007812 38.125 42.011719 C 38.179688 42.046875 38.234375 42.089844 38.277344 42.140625 C 38.355469 42.226562 38.410156 42.335938 38.429688 42.449219 C 38.433594 42.492188 38.433594 42.53125 38.433594 42.601562 C 38.433594 42.648438 38.433594 42.683594 38.429688 42.703125 C 38.429688 42.753906 38.425781 42.808594 38.425781 42.863281 C 38.421875 42.976562 38.417969 43.089844 38.40625 43.207031 C 38.328125 43.96875 38.246094 44.691406 38.167969 45.390625 C 38.121094 45.8125 38.074219 46.214844 38.03125 46.621094 " fill-opacity="1" fill-rule="evenodd"/></g></svg>