<svg xmlns="http://www.w3.org/2000/svg" xmlns:xlink="http://www.w3.org/1999/xlink" width="100" zoomAndPan="magnify" viewBox="0 0 75 74.999997" height="100" preserveAspectRatio="xMidYMid meet" version="1.0"><path stroke-linecap="round" transform="matrix(0.75, 0, 0, 0.75, 4.07867, 17.752573)" fill="none" stroke-linejoin="miter" d="M 0.999274 1.001778 L 87.327406 1.001778 " stroke="#e42f2a" stroke-width="2" stroke-opacity="1" stroke-miterlimit="4"/><path stroke-linecap="round" transform="matrix(0.75, 0, 0, 0.75, 4.676625, 55.747413)" fill="none" stroke-linejoin="miter" d="M 0.998875 0.998241 L 86.530132 0.998241 " stroke="#e42f2a" stroke-width="2" stroke-opacity="1" stroke-miterlimit="4"/><path stroke-linecap="round" transform="matrix(0, -0.75, 0.75, 0, 3.926027, 56.72734)" fill="none" stroke-linejoin="miter" d="M 1.001037 0.999673 L 50.985416 0.999673 " stroke="#e42f2a" stroke-width="2" stroke-opacity="1" stroke-miterlimit="4"/><path stroke-linecap="round" transform="matrix(0, 0.75, -0.75, 0, 71.068107, 18.507835)" fill="none" stroke-linejoin="miter" d="M 0.99997 1.002268 L 49.968724 1.002268 " stroke="#e42f2a" stroke-width="2" stroke-opacity="1" stroke-miterlimit="4"/><path stroke-linecap="round" transform="matrix(0, 0.75, -0.75, 0, 26.221838, 17.739061)" fill="none" stroke-linejoin="miter" d="M 0.99896 0.998909 L 50.988547 0.998909 " stroke="#e42f2a" stroke-width="2" stroke-opacity="1" stroke-miterlimit="4"/><path stroke-linecap="round" transform="matrix(0, -0.75, 0.75, 0, 49.571467, 56.72734)" fill="none" stroke-linejoin="miter" d="M 1.001037 0.998461 L 50.985416 0.998461 " stroke="#e42f2a" stroke-width="2" stroke-opacity="1" stroke-miterlimit="4"/></svg>