<svg xmlns="http://www.w3.org/2000/svg" xmlns:xlink="http://www.w3.org/1999/xlink" width="100" zoomAndPan="magnify" viewBox="0 0 75 74.999997" height="100" preserveAspectRatio="xMidYMid meet" version="1.0"><defs><clipPath id="a8106fdaf9"><path d="M 14.257812 29.175781 L 17.34375 29.175781 L 17.34375 32.707031 L 14.257812 32.707031 Z M 14.257812 29.175781 " clip-rule="nonzero"/></clipPath><clipPath id="dd77aa2198"><path d="M 15.800781 29.175781 L 16.425781 29.867188 L 17.34375 30.054688 L 17.050781 30.9375 L 17.34375 31.820312 L 16.425781 32.007812 L 15.800781 32.699219 L 15.175781 32.007812 L 14.257812 31.820312 L 14.550781 30.9375 L 14.257812 30.054688 L 15.175781 29.867188 Z M 15.800781 29.175781 " clip-rule="nonzero"/></clipPath><clipPath id="1ba017986c"><path d="M 14.257812 36.449219 L 17.34375 36.449219 L 17.34375 39.980469 L 14.257812 39.980469 Z M 14.257812 36.449219 " clip-rule="nonzero"/></clipPath><clipPath id="3c35570cd1"><path d="M 15.800781 36.449219 L 16.425781 37.140625 L 17.34375 37.332031 L 17.050781 38.214844 L 17.34375 39.09375 L 16.425781 39.285156 L 15.800781 39.976562 L 15.175781 39.285156 L 14.257812 39.09375 L 14.550781 38.214844 L 14.257812 37.332031 L 15.175781 37.140625 Z M 15.800781 36.449219 " clip-rule="nonzero"/></clipPath><clipPath id="50dda6766a"><path d="M 30.765625 29.175781 L 33.851562 29.175781 L 33.851562 32.707031 L 30.765625 32.707031 Z M 30.765625 29.175781 " clip-rule="nonzero"/></clipPath><clipPath id="61ded36596"><path d="M 32.308594 29.175781 L 32.933594 29.867188 L 33.851562 30.054688 L 33.558594 30.9375 L 33.851562 31.820312 L 32.933594 32.007812 L 32.308594 32.699219 L 31.683594 32.007812 L 30.765625 31.820312 L 31.058594 30.9375 L 30.765625 30.054688 L 31.683594 29.867188 Z M 32.308594 29.175781 " clip-rule="nonzero"/></clipPath><clipPath id="41754d8bcf"><path d="M 22.429688 36.449219 L 25.515625 36.449219 L 25.515625 39.980469 L 22.429688 39.980469 Z M 22.429688 36.449219 " clip-rule="nonzero"/></clipPath><clipPath id="39b6d85223"><path d="M 23.972656 36.449219 L 24.597656 37.140625 L 25.515625 37.332031 L 25.222656 38.214844 L 25.515625 39.09375 L 24.597656 39.285156 L 23.972656 39.976562 L 23.347656 39.285156 L 22.429688 39.09375 L 22.722656 38.214844 L 22.429688 37.332031 L 23.347656 37.140625 Z M 23.972656 36.449219 " clip-rule="nonzero"/></clipPath><clipPath id="d55b409d31"><path d="M 30.414062 36.449219 L 33.5 36.449219 L 33.5 39.980469 L 30.414062 39.980469 Z M 30.414062 36.449219 " clip-rule="nonzero"/></clipPath><clipPath id="6ee928d1ad"><path d="M 31.957031 36.449219 L 32.582031 37.140625 L 33.5 37.332031 L 33.207031 38.214844 L 33.5 39.09375 L 32.582031 39.285156 L 31.957031 39.976562 L 31.332031 39.285156 L 30.414062 39.09375 L 30.707031 38.214844 L 30.414062 37.332031 L 31.332031 37.140625 Z M 31.957031 36.449219 " clip-rule="nonzero"/></clipPath><clipPath id="8b9f692ab1"><path d="M 22.429688 29.175781 L 25.515625 29.175781 L 25.515625 32.707031 L 22.429688 32.707031 Z M 22.429688 29.175781 " clip-rule="nonzero"/></clipPath><clipPath id="b91f86df5f"><path d="M 23.972656 29.175781 L 24.597656 29.867188 L 25.515625 30.054688 L 25.222656 30.9375 L 25.515625 31.820312 L 24.597656 32.007812 L 23.972656 32.699219 L 23.347656 32.007812 L 22.429688 31.820312 L 22.722656 30.9375 L 22.429688 30.054688 L 23.347656 29.867188 Z M 23.972656 29.175781 " clip-rule="nonzero"/></clipPath></defs><path stroke-linecap="round" transform="matrix(0.75, 0, 0, 0.75, 6.89853, 23.647012)" fill="none" stroke-linejoin="miter" d="M 0.999876 1.001901 L 81.406133 1.001901 " stroke="#ff3131" stroke-width="2" stroke-opacity="1" stroke-miterlimit="4"/><path stroke-linecap="round" transform="matrix(0.75, 0, 0, 0.75, 7.500001, 56.699994)" fill="none" stroke-linejoin="miter" d="M 0.999999 0.998966 L 80.604172 0.998966 " stroke="#ff3131" stroke-width="2" stroke-opacity="1" stroke-miterlimit="4"/><path stroke-linecap="round" transform="matrix(0, 0.75, -0.75, 0, 8.023531, 24.39701)" fill="none" stroke-linejoin="miter" d="M 1.001903 1.000124 L 44.001907 1.000124 " stroke="#ff3131" stroke-width="2" stroke-opacity="1" stroke-miterlimit="4"/><path stroke-linecap="round" transform="matrix(0, 0.75, -0.75, 0, 69.452933, 24.39701)" fill="none" stroke-linejoin="miter" d="M 1.001903 0.999745 L 44.001907 0.999745 " stroke="#ff3131" stroke-width="2" stroke-opacity="1" stroke-miterlimit="4"/><path stroke-linecap="round" transform="matrix(0.75, 0, 0, 0.75, 7.27353, 49.949995)" fill="none" stroke-linejoin="miter" d="M 0.999877 0.998965 L 72.598841 0.998965 " stroke="#ff3131" stroke-width="2" stroke-opacity="1" stroke-miterlimit="4"/><path stroke-linecap="round" transform="matrix(0.75, 0, 0, 0.75, 7.27353, 43.199995)" fill="none" stroke-linejoin="miter" d="M 0.999877 0.998964 L 72.598841 0.998964 " stroke="#ff3131" stroke-width="2" stroke-opacity="1" stroke-miterlimit="4"/><path stroke-linecap="round" transform="matrix(0.749974, -0.00623674, 0.00623674, 0.749974, 39.920521, 36.937518)" fill="none" stroke-linejoin="miter" d="M 0.998751 0.997899 L 29.062188 1.002098 " stroke="#ff3131" stroke-width="2" stroke-opacity="1" stroke-miterlimit="4"/><path stroke-linecap="round" transform="matrix(0.75, -0.000000000000000186, 0.000000000000000186, 0.75, 39.924106, 30.1875)" fill="none" stroke-linejoin="miter" d="M 1.002234 1 L 29.064736 1 " stroke="#ff3131" stroke-width="2" stroke-opacity="1" stroke-miterlimit="4"/><g clip-path="url(#a8106fdaf9)"><g clip-path="url(#dd77aa2198)"><path fill="#ff3131" d="M 14.257812 29.175781 L 17.34375 29.175781 L 17.34375 32.707031 L 14.257812 32.707031 Z M 14.257812 29.175781 " fill-opacity="1" fill-rule="nonzero"/></g></g><g clip-path="url(#1ba017986c)"><g clip-path="url(#3c35570cd1)"><path fill="#ff3131" d="M 14.257812 36.449219 L 17.34375 36.449219 L 17.34375 39.980469 L 14.257812 39.980469 Z M 14.257812 36.449219 " fill-opacity="1" fill-rule="nonzero"/></g></g><g clip-path="url(#50dda6766a)"><g clip-path="url(#61ded36596)"><path fill="#ff3131" d="M 30.765625 29.175781 L 33.851562 29.175781 L 33.851562 32.707031 L 30.765625 32.707031 Z M 30.765625 29.175781 " fill-opacity="1" fill-rule="nonzero"/></g></g><g clip-path="url(#41754d8bcf)"><g clip-path="url(#39b6d85223)"><path fill="#ff3131" d="M 22.429688 36.449219 L 25.515625 36.449219 L 25.515625 39.980469 L 22.429688 39.980469 Z M 22.429688 36.449219 " fill-opacity="1" fill-rule="nonzero"/></g></g><g clip-path="url(#d55b409d31)"><g clip-path="url(#6ee928d1ad)"><path fill="#ff3131" d="M 30.414062 36.449219 L 33.5 36.449219 L 33.5 39.980469 L 30.414062 39.980469 Z M 30.414062 36.449219 " fill-opacity="1" fill-rule="nonzero"/></g></g><g clip-path="url(#8b9f692ab1)"><g clip-path="url(#b91f86df5f)"><path fill="#ff3131" d="M 22.429688 29.175781 L 25.515625 29.175781 L 25.515625 32.707031 L 22.429688 32.707031 Z M 22.429688 29.175781 " fill-opacity="1" fill-rule="nonzero"/></g></g></svg>